<svg xmlns="http://www.w3.org/2000/svg" width="24" height="24" fill="none"><path fill="#000" fill-rule="evenodd" d="M10.872 3.408a1.762 1.762 0 0 1 2.256 0l4.512 3.76a1 1 0 0 1 .36.769V20a1 1 0 0 1-1 1H7a1 1 0 0 1-1-1V7.937a1 1 0 0 1 .36-.768l4.512-3.76ZM12 1c-.88 0-1.732.309-2.408.872l-4.513 3.76A3 3 0 0 0 4 7.937V20a3 3 0 0 0 3 3h10a3 3 0 0 0 3-3V7.937a3 3 0 0 0-1.08-2.305l-4.512-3.76A3.762 3.762 0 0 0 12 1Zm1 7a1 1 0 1 0-2 0 3 3 0 0 0 0 6h2a1 1 0 1 1 0 2h-3a1 1 0 1 0 0 2h1a1 1 0 1 0 2 0 3 3 0 1 0 0-6h-2a1 1 0 1 1 0-2h3a1 1 0 1 0 0-2h-1Z" clip-rule="evenodd"/></svg>